<svg id="Layer_1" enable-background="new 0 0 511.981 511.981" height="512" viewBox="0 0 511.981 511.981" width="512" xmlns="http://www.w3.org/2000/svg" xmlns:xlink="http://www.w3.org/1999/xlink"><linearGradient id="SVGID_1_" gradientUnits="userSpaceOnUse" x1=".119" x2="511.862" y1="255.991" y2="255.991"><stop offset="0" stop-color="#87f1fc"/><stop offset=".2557" stop-color="#7fd4fb"/><stop offset=".5295" stop-color="#78bcfb"/><stop offset=".7844" stop-color="#74aefa"/><stop offset="1" stop-color="#73a9fa"/></linearGradient><path d="m141.159 124.905c-.267.24.255-.254 0 0zm295.979-49.92c-160.892-160.553-436.804-46.156-437.019 181.019v205.947c0 18.771 10.358 35.79 27.033 44.413 16.674 8.622 36.548 7.238 51.868-3.611l41.639-29.493c79.463 50.819 187.626 51.477 267.922 1.851 9.448-5.724 12.467-18.021 6.744-27.469s-18.022-12.468-27.468-6.744c-71.301 44.096-168.007 40.886-236.041-8.232-6.924-4.881-16.171-4.873-23.084.025l-52.832 37.422c-4.482 3.173-8.748 1.562-10.374.722-1.625-.841-5.407-3.39-5.407-8.883v-205.948c0-119.103 96.897-216 216-216 170.554-1.403 275.888 194.928 179.371 335.885-6.136 9.181-3.669 21.602 5.514 27.741 9.183 6.14 21.603 3.672 27.742-5.51 67.979-98.568 54.192-239.887-31.608-323.135zm-49.92 296.979c-.24.268.254-.254 0 0zm0 0c-17.972 19.479-50.952 35.042-80.393 34.916-34.897-.174-87.313-11.199-138.848-62.733-70.116-72.057-82.255-162.113-26.818-219.242 20.304-18.226 51.046-17.118 69.987 2.524 15.897 16.486 24.762 29.98 28.743 43.756 3.988 13.803 4.576 34.521-15.271 54.843-.069.071-.138.141-.208.21 3.887 8.329 11.536 21.31 25.851 35.625 14.373 14.373 27.444 22.37 35.917 26.561 20.296-19.766 40.976-19.173 54.759-15.188 13.775 3.98 27.271 12.845 43.756 28.742 19.643 18.939 20.751 49.682 2.525 69.986zm-30.289-41.194c-28.426-27.41-36.095-20.279-42.755-13.775l-8.82 8.937c-4.942 5.007-12.154 7.049-18.986 5.378-40.192-9.648-96.665-65.664-104.716-106.286-1.359-6.63.726-13.498 5.542-18.252l8.935-8.82c6.502-6.66 13.638-14.328-13.775-42.756-3.812-3.954-9.936-4.278-14.133-.816-10.553 10.871-22.06 34.092-21.977 50.72.139 27.851 8.93 69.675 50.018 110.765 41.92 41.919 83.372 50.881 110.764 51.018 16.683.071 39.837-11.424 50.721-21.978 3.459-4.198 3.135-10.322-.818-14.135z" fill="url(#SVGID_1_)"/></svg>